<svg width="650" height="176" viewBox="0 0 650 176" fill="none" xmlns="http://www.w3.org/2000/svg">
<g clip-path="url(#clip0_3191_93)">
<path fill-rule="evenodd" clip-rule="evenodd" d="M403.449 107.903L401.629 111.05C398.245 116.64 392.685 122.765 386.689 125.605C386.063 125.902 385.605 126.122 384.979 126.374C384.37 126.589 383.773 126.837 383.191 127.116C395.484 124.603 404.589 119.106 412.189 109.916C418.48 102.292 424.98 89.9175 424.066 75.92C423.186 62.5323 415.586 52.4086 404.308 49.5741C392.24 46.5354 383.132 51.9605 376.576 60.6682C376.105 61.2913 374.647 63.4205 374.44 64.0861C383.318 59.6394 393.933 57.6693 402.882 64.1736C410.671 69.8373 413.018 81.231 410.989 91.1717C409.809 96.9415 407.499 101.34 404.592 106.156C404.185 106.719 403.807 107.302 403.46 107.903H403.449Z" fill="#E15A11"/>
<path fill-rule="evenodd" clip-rule="evenodd" d="M372.323 126.611C371.491 127.205 368.253 126.184 367.415 126.038C369.005 127.181 372.357 128.096 374.766 128.231C378.447 128.44 380.066 127.799 383.193 127.144C383.778 126.869 384.378 126.625 384.99 126.414C385.615 126.163 386.073 125.942 386.699 125.648C392.704 122.8 398.263 116.673 401.639 111.091L403.46 107.944C403.664 107.315 404.135 106.456 404.427 105.78C406.841 100.212 408.614 93.909 408.071 87.7123C407.745 84.0001 406.83 80.6936 405.225 77.9864C399.978 69.1037 388.922 65.8158 379.406 70.0317C374.21 72.32 370.926 76.0587 368.21 80.7308C367.818 81.3565 367.553 82.1069 367.203 82.6638C367.619 82.5922 368.846 81.8232 369.413 81.5554C371.876 80.3332 374.503 79.4766 377.212 79.0126C384.658 77.7902 392.502 80.1925 396.315 86.6093C398.104 89.6267 398.613 93.9514 398.17 98.0693C397.375 105.406 393.708 113.059 390.115 117.394C389.094 118.653 387.983 119.836 386.792 120.934C385.592 122.006 384.306 122.977 382.946 123.837C380.384 125.412 375.219 127.377 372.347 126.592L372.323 126.611Z" fill="#069139"/>
<path fill-rule="evenodd" clip-rule="evenodd" d="M367.405 126.038C368.243 126.184 371.484 127.22 372.313 126.611C371.696 126.453 371.127 126.147 370.654 125.72C370.182 125.293 369.821 124.756 369.602 124.158C368.097 120.65 369.372 114.233 370.225 110.762C370.909 107.986 371.656 105.406 372.52 102.731L375.143 95.0703L364.808 95.0942C364.175 96.0806 362.792 101.503 362.424 103.065C360.661 110.24 358.788 122.644 367.405 126.038Z" fill="#05559C"/>
<path fill-rule="evenodd" clip-rule="evenodd" d="M364.485 88.2431L365.251 89.0784C365.811 88.5084 366.453 88.0265 367.157 87.6491C368.208 87.1129 369.388 86.8831 370.563 86.9858C371.738 87.0884 372.861 87.5195 373.803 88.2298C374.225 88.5348 374.357 88.7867 374.763 89.0254L375.558 88.2298C375.163 87.6358 374.145 86.904 373.318 86.4982C372.3 86.0023 371.182 85.7446 370.049 85.7446C368.917 85.7446 367.799 86.0023 366.78 86.4982C366.049 86.8324 364.867 87.6783 364.517 88.2404L364.485 88.2431Z" fill="#05559C"/>
<path fill-rule="evenodd" clip-rule="evenodd" d="M365.834 89.6952L366.629 90.5782C367.424 90.1539 369.075 88.2446 371.882 89.544C372.424 89.7686 372.905 90.1205 373.284 90.5702L374.193 89.5573C373.074 88.7617 372.131 87.7939 369.974 87.8098C369.189 87.8109 368.413 87.9811 367.7 88.3087C366.986 88.6363 366.352 89.1137 365.839 89.7084L365.834 89.6952Z" fill="#05559C"/>
<path fill-rule="evenodd" clip-rule="evenodd" d="M367.318 91.1949L368.163 91.8658C368.253 91.8048 368.306 91.757 368.38 91.7067C368.835 91.3642 369.383 91.169 369.952 91.1471C371.131 91.1206 371.372 91.6298 372.12 92.0037L372.689 91.2081C371.478 89.7046 368.481 89.5747 367.31 91.2081L367.318 91.1949Z" fill="#05559C"/>
<path fill-rule="evenodd" clip-rule="evenodd" d="M368.631 92.5562L370.137 94.065L371.379 92.6251C370.404 91.705 369.681 91.7845 368.626 92.5588L368.631 92.5562Z" fill="#05559C"/>
<path fill-rule="evenodd" clip-rule="evenodd" d="M434.766 109.548V97.4286H438.604C439.612 97.3793 440.602 97.7146 441.373 98.3668C441.717 98.6868 441.987 99.0777 442.165 99.5125C442.342 99.9473 442.424 100.416 442.403 100.885C442.413 101.549 442.229 102.201 441.873 102.761C441.522 103.298 441.012 103.712 440.416 103.947C439.568 104.228 438.675 104.352 437.783 104.312H436.485V109.562L434.766 109.548ZM438.302 98.9647H436.5V102.776H438.404C438.988 102.818 439.567 102.645 440.032 102.29C440.233 102.107 440.39 101.88 440.49 101.628C440.59 101.375 440.631 101.103 440.61 100.831C440.61 99.5918 439.838 98.9696 438.302 98.9696V98.9647ZM447.047 101.541C447.606 101.522 448.164 101.617 448.685 101.819C449.207 102.021 449.683 102.327 450.084 102.718C450.478 103.101 450.788 103.562 450.996 104.072C451.203 104.581 451.303 105.128 451.289 105.678C451.303 106.219 451.201 106.758 450.989 107.256C450.777 107.755 450.46 108.201 450.059 108.566C449.226 109.339 448.12 109.751 446.984 109.713C446.431 109.728 445.88 109.632 445.364 109.433C444.848 109.234 444.377 108.934 443.977 108.551C443.208 107.781 442.777 106.737 442.777 105.649C442.777 104.561 443.208 103.517 443.977 102.747C444.384 102.355 444.865 102.048 445.393 101.844C445.92 101.641 446.482 101.544 447.047 101.561V101.541ZM446.97 103C446.626 102.984 446.283 103.04 445.962 103.164C445.641 103.288 445.349 103.477 445.104 103.719C444.863 103.972 444.674 104.271 444.55 104.599C444.426 104.926 444.368 105.275 444.38 105.625C444.363 105.969 444.419 106.313 444.544 106.635C444.668 106.957 444.859 107.248 445.104 107.491C445.358 107.734 445.659 107.922 445.988 108.046C446.317 108.17 446.667 108.226 447.018 108.211C447.368 108.227 447.717 108.172 448.045 108.048C448.372 107.924 448.671 107.735 448.923 107.491C449.308 107.123 449.571 106.646 449.677 106.124C449.783 105.601 449.726 105.059 449.514 104.57C449.303 104.081 448.946 103.668 448.493 103.388C448.039 103.109 447.511 102.974 446.979 103.004L446.97 103ZM462.827 101.599H464.537L461.024 109.727H460.505L458.153 104.156L455.816 109.727H455.306L451.774 101.599H453.47L455.554 106.461L457.585 101.599H458.765L460.777 106.461L462.861 101.599H462.827ZM472.116 105.693H466.48C466.489 106.38 466.762 107.039 467.243 107.53C467.484 107.768 467.77 107.955 468.085 108.079C468.4 108.203 468.736 108.263 469.075 108.254C470.117 108.253 471.13 107.911 471.96 107.282V108.828C471.51 109.126 471.019 109.357 470.503 109.513C469.955 109.663 469.389 109.733 468.822 109.723C468.062 109.762 467.309 109.57 466.66 109.173C466.112 108.803 465.666 108.302 465.363 107.715C465.021 107.046 464.854 106.302 464.877 105.552C464.83 104.466 465.201 103.403 465.912 102.581C466.247 102.205 466.661 101.907 467.125 101.709C467.588 101.511 468.09 101.417 468.594 101.434C469.074 101.415 469.552 101.505 469.992 101.698C470.432 101.891 470.823 102.181 471.134 102.547C471.799 103.392 472.134 104.449 472.077 105.522V105.717L472.116 105.693ZM466.539 104.754H470.595C470.585 104.217 470.386 103.7 470.032 103.296C469.853 103.123 469.64 102.988 469.407 102.9C469.174 102.812 468.925 102.773 468.676 102.786C468.164 102.766 467.664 102.949 467.287 103.296C466.896 103.692 466.644 104.203 466.568 104.754H466.539ZM475.512 101.59V103.398L475.599 103.252C476.364 102.024 477.126 101.41 477.887 101.41C478.602 101.464 479.269 101.785 479.758 102.309L478.927 103.7C478.531 103.257 477.983 102.979 477.392 102.922C477.129 102.926 476.872 102.994 476.642 103.121C476.412 103.247 476.215 103.427 476.07 103.646C475.694 104.143 475.497 104.753 475.512 105.377V109.582H473.933V101.561L475.512 101.59ZM482.76 97.4286H492.89V98.9793H488.658V109.582H486.919V98.9647H482.76V97.4286ZM495.46 101.551C496.019 101.533 496.576 101.628 497.097 101.831C497.619 102.033 498.095 102.338 498.496 102.727C498.89 103.112 499.201 103.574 499.408 104.084C499.616 104.594 499.715 105.142 499.701 105.693C499.716 106.233 499.614 106.77 499.403 107.267C499.192 107.765 498.876 108.211 498.477 108.575C497.641 109.348 496.534 109.761 495.397 109.723C494.843 109.737 494.293 109.641 493.777 109.442C493.261 109.243 492.789 108.943 492.389 108.561C492.008 108.18 491.706 107.728 491.5 107.231C491.294 106.733 491.188 106.2 491.188 105.661C491.188 105.122 491.294 104.589 491.5 104.091C491.706 103.594 492.008 103.142 492.389 102.761C492.797 102.374 493.278 102.072 493.803 101.872C494.328 101.671 494.888 101.577 495.45 101.595L495.46 101.551ZM495.382 103.009C495.038 102.995 494.696 103.052 494.375 103.176C494.054 103.299 493.762 103.488 493.516 103.729C493.275 103.982 493.088 104.281 492.964 104.609C492.841 104.936 492.784 105.285 492.797 105.634C492.781 105.978 492.836 106.322 492.96 106.644C493.084 106.965 493.273 107.257 493.516 107.501C493.775 107.746 494.081 107.936 494.415 108.06C494.748 108.185 495.104 108.241 495.46 108.225C495.81 108.239 496.159 108.182 496.486 108.058C496.813 107.933 497.112 107.744 497.364 107.501C497.748 107.133 498.009 106.656 498.114 106.134C498.219 105.613 498.162 105.072 497.95 104.584C497.739 104.096 497.383 103.684 496.931 103.405C496.479 103.125 495.952 102.99 495.421 103.019L495.382 103.009ZM506.634 97.4286H513.518V98.9793H508.378V102.679H513.338V104.234H508.378V108.021H513.678V109.572H506.634V97.4286ZM521.864 103.748V109.518H520.285V105.061C520.341 104.422 520.216 103.78 519.926 103.209C519.782 103.021 519.593 102.873 519.376 102.779C519.159 102.686 518.922 102.649 518.687 102.674C518.368 102.669 518.054 102.751 517.778 102.912C517.422 103.129 517.103 103.403 516.836 103.724V109.494H515.257V101.561H516.836V102.606C517.127 102.253 517.486 101.963 517.892 101.753C518.298 101.542 518.741 101.416 519.197 101.381C519.687 101.377 520.167 101.512 520.583 101.77C520.999 102.028 521.334 102.399 521.548 102.839C521.854 102.416 522.25 102.066 522.707 101.814C523.164 101.562 523.671 101.414 524.191 101.381C524.554 101.372 524.915 101.443 525.246 101.59C525.578 101.737 525.873 101.956 526.11 102.231C526.655 102.982 526.91 103.904 526.829 104.827V109.548H525.25V104.793C525.289 104.252 525.146 103.712 524.842 103.262C524.703 103.086 524.523 102.946 524.319 102.854C524.114 102.762 523.891 102.72 523.667 102.732C523.304 102.752 522.952 102.854 522.634 103.03C522.317 103.206 522.044 103.451 521.835 103.748H521.864ZM528.923 113.636V101.561H531.688C532.882 101.489 534.059 101.865 534.991 102.615C535.392 102.994 535.705 103.455 535.909 103.968C536.113 104.48 536.203 105.03 536.172 105.581C536.193 106.122 536.106 106.661 535.916 107.168C535.726 107.675 535.436 108.138 535.064 108.532C534.699 108.912 534.258 109.211 533.77 109.41C533.283 109.61 532.758 109.704 532.232 109.688C531.651 109.675 531.078 109.562 530.536 109.353V113.636H528.923ZM531.654 103.034H530.536V107.943C531.006 108.186 531.528 108.313 532.057 108.313C532.396 108.323 532.734 108.26 533.046 108.126C533.358 107.993 533.637 107.793 533.864 107.54C534.253 107.079 534.498 106.514 534.568 105.915C534.638 105.316 534.53 104.709 534.258 104.171C534.05 103.796 533.733 103.492 533.349 103.301C532.814 103.093 532.242 102.998 531.668 103.024L531.654 103.034ZM541.744 101.541C542.302 101.523 542.858 101.617 543.378 101.82C543.898 102.022 544.372 102.327 544.771 102.718C545.168 103.099 545.48 103.56 545.689 104.07C545.897 104.58 545.997 105.127 545.981 105.678C545.998 106.219 545.897 106.758 545.686 107.256C545.474 107.755 545.157 108.202 544.756 108.566C543.923 109.339 542.817 109.751 541.681 109.713C541.128 109.728 540.577 109.632 540.061 109.433C539.545 109.234 539.073 108.934 538.674 108.551C538.293 108.17 537.99 107.718 537.784 107.22C537.578 106.722 537.472 106.188 537.472 105.649C537.472 105.11 537.578 104.576 537.784 104.078C537.99 103.58 538.293 103.128 538.674 102.747C539.08 102.358 539.559 102.055 540.084 101.853C540.609 101.652 541.168 101.558 541.73 101.575L541.744 101.541ZM541.666 103C541.323 102.983 540.979 103.038 540.658 103.162C540.337 103.286 540.045 103.476 539.801 103.719C539.558 103.971 539.368 104.27 539.244 104.598C539.119 104.925 539.063 105.274 539.077 105.625C539.06 105.969 539.116 106.313 539.241 106.635C539.366 106.956 539.556 107.248 539.801 107.491C540.056 107.733 540.357 107.921 540.685 108.044C541.014 108.168 541.364 108.225 541.715 108.211C542.065 108.226 542.415 108.17 542.743 108.046C543.071 107.923 543.371 107.734 543.624 107.491C543.866 107.243 544.055 106.948 544.179 106.625C544.304 106.302 544.361 105.956 544.348 105.61C544.358 105.258 544.293 104.908 544.158 104.583C544.024 104.258 543.822 103.965 543.566 103.724C543.307 103.48 543.001 103.291 542.667 103.167C542.333 103.044 541.978 102.988 541.623 103.004L541.666 103ZM557.524 101.599H559.214L555.663 109.703H555.143L552.782 104.137L550.45 109.703H549.925L546.394 101.575H548.099L550.178 106.436L552.214 101.575H553.389L555.406 106.436L557.49 101.575L557.524 101.599ZM566.779 105.693H561.158C561.166 106.381 561.441 107.04 561.925 107.53C562.165 107.768 562.451 107.955 562.764 108.08C563.078 108.204 563.414 108.264 563.752 108.254C564.792 108.253 565.804 107.911 566.633 107.282V108.828C566.184 109.128 565.693 109.359 565.176 109.513C564.63 109.663 564.065 109.733 563.499 109.723C562.74 109.763 561.986 109.571 561.337 109.173C560.787 108.804 560.338 108.303 560.031 107.715C559.691 107.046 559.524 106.302 559.545 105.552C559.501 104.467 559.869 103.406 560.575 102.581C560.912 102.205 561.328 101.907 561.793 101.709C562.258 101.51 562.761 101.417 563.266 101.434C563.746 101.415 564.223 101.505 564.663 101.698C565.102 101.891 565.492 102.181 565.802 102.547C566.468 103.391 566.804 104.449 566.745 105.522V105.717L566.779 105.693ZM561.216 104.75H565.239C565.227 104.212 565.027 103.696 564.675 103.291C564.495 103.119 564.283 102.985 564.05 102.897C563.817 102.809 563.568 102.77 563.32 102.781C562.805 102.762 562.303 102.946 561.92 103.291C561.533 103.689 561.282 104.2 561.201 104.75H561.216ZM570.189 101.585V103.393L570.281 103.247C571.049 102.019 571.813 101.405 572.575 101.405C573.287 101.462 573.952 101.783 574.44 102.304L573.605 103.695C573.212 103.252 572.667 102.974 572.079 102.917C571.816 102.921 571.558 102.989 571.327 103.115C571.095 103.241 570.899 103.422 570.753 103.641C570.377 104.139 570.179 104.748 570.189 105.372V109.582H568.61V101.561L570.189 101.585Z" fill="#333333"/>
<path fill-rule="evenodd" clip-rule="evenodd" d="M443.041 72.6354C453.025 71.6631 449.765 82.4752 445.368 84.9011C443.323 86.0144 441.209 85.6984 438.644 85.7129L443.041 72.6597V72.6354ZM433.834 88.9605C436.963 89.0577 443.687 89.3883 446.131 88.3479C453.254 85.3435 455.309 75.0176 451.743 71.177C449.406 68.6538 443.741 69.3442 440.31 69.3004L433.819 88.9848L433.834 88.9605Z" fill="#333333"/>
<path fill-rule="evenodd" clip-rule="evenodd" d="M462.738 90.4332C465.241 89.6748 468.258 92.3389 464.75 93.0293C461.475 93.671 458.91 91.5951 462.738 90.4332ZM466.718 78.6683C469.672 77.696 468.559 82.3533 466.96 83.0437C465.362 83.734 464.575 82.893 464.891 81.2255C465.153 79.8594 465.615 79.028 466.718 78.6683ZM462.904 84.6772C461.655 85.0029 460.814 85.3967 460.387 86.4079C460.11 86.9304 460.043 87.5388 460.198 88.1094C460.353 88.68 460.719 89.1701 461.223 89.4803C457.938 90.7152 456.898 92.9855 458.4 94.4926C460.776 96.8942 471.372 95.8441 469.574 89.6311C468.744 86.7141 464.376 87.8858 463.618 86.4079C464.342 84.7355 465.999 86.7676 469.487 84.4632C471.066 83.4229 471.795 81.4977 471.795 78.7898H473.665L474.462 75.9799C470.021 75.4111 463.559 75.3381 461.966 80.1268C461.669 80.9808 461.602 81.8979 461.772 82.786C461.825 83.1381 461.963 83.4719 462.175 83.7583L462.899 84.7306L462.904 84.6772Z" fill="#333333"/>
<path fill-rule="evenodd" clip-rule="evenodd" d="M546.709 85.9243C541.321 87.1008 542.283 78.8264 549.032 79.1181C548.716 80.4113 547.292 85.1075 546.709 85.9243ZM550.212 75.7151C545.276 76.0359 541.326 76.7408 539.868 82.4969C538.153 89.303 544.124 89.7114 549.362 88.8169L555.795 69.293H552.326L550.212 75.7248V75.7151Z" fill="#333333"/>
<path fill-rule="evenodd" clip-rule="evenodd" d="M499.147 78.9562C498.72 80.6529 498.049 82.3593 497.51 84.0851C497.106 85.3637 497.068 85.4318 495.96 85.9179C491.951 87.6778 492.879 83.0836 494.459 81.0321C495.518 79.6563 496.567 78.752 499.147 78.9562ZM496.004 87.9938C496.056 88.0992 496.081 88.2163 496.076 88.3341C496.076 88.4702 496.033 88.7376 496.023 89.0196H499.288L503.617 76.0782C500.571 75.6309 498.273 75.3587 495.469 76.4331C487.302 79.5396 487.467 93.5359 495.979 88.0084L496.004 87.9938Z" fill="#333333"/>
<path fill-rule="evenodd" clip-rule="evenodd" d="M569.91 78.9561C569.565 80.5701 568.787 82.4661 568.282 84.0947C567.505 86.6227 564.881 86.5692 564.303 85.9421C563.122 84.6198 564.585 78.5915 569.91 78.9561ZM566.766 87.9985L566.805 89.0243H570.041L574.365 76.1558C568.676 74.5418 563.647 76.8753 561.616 80.3902C558.73 85.3927 560.61 92.1746 566.747 88.0131L566.766 87.9985Z" fill="#333333"/>
<path fill-rule="evenodd" clip-rule="evenodd" d="M524.201 88.9706H527.631L529.861 82.3589C529.954 82.077 530.027 81.8436 530.09 81.6346C530.415 80.5407 530.313 80.4921 531.45 79.6608C534.516 77.4391 534.968 78.81 534.283 81.1192L531.878 89.0533H535.114L537.961 80.672C538.043 80.4206 538.107 80.1639 538.155 79.9039C538.553 78.0613 538.359 76.1313 536.586 75.7813C534.56 75.3826 532.917 76.5008 531.606 77.2397L531.941 75.9806L528.54 75.9125L524.216 89.0144L524.201 88.9706Z" fill="#333333"/>
<path fill-rule="evenodd" clip-rule="evenodd" d="M484.027 75.8585H481.666L480.611 78.7414H482.905C482.516 80.8416 476.243 92.0863 486.762 88.4158L487.408 85.0468C486.767 85.3426 486.091 85.5582 485.397 85.6885C483.094 85.494 485.956 80.0491 486.393 78.7997L489.056 78.7462L489.988 75.8633H487.525L488.468 73.1603L484.965 73.0874L484.027 75.8342V75.8585Z" fill="#333333"/>
<path fill-rule="evenodd" clip-rule="evenodd" d="M516.806 88.9302L520.45 88.9982L527.048 69.2993L523.321 69.2896L516.806 88.9302Z" fill="#333333"/>
<path fill-rule="evenodd" clip-rule="evenodd" d="M502.609 88.9399L506.02 89.0031L512.579 69.2896H509.105L502.609 88.9399Z" fill="#333333"/>
<path fill-rule="evenodd" clip-rule="evenodd" d="M452.92 89.1063H456.404L460.577 75.8343H457.093L452.92 89.1063ZM460.548 70.438C461.52 70.438 462.074 71.3471 461.821 72.4652C461.72 72.9882 461.457 73.466 461.069 73.8302C460.68 74.1943 460.187 74.4262 459.659 74.4925C458.687 74.4925 458.123 73.5834 458.376 72.4652C458.48 71.9372 458.75 71.456 459.145 71.0915C459.541 70.727 460.043 70.4981 460.577 70.438H460.548Z" fill="#333333"/>
<path fill-rule="evenodd" clip-rule="evenodd" d="M472.089 89.1058H475.572L479.746 75.8338H476.267L472.089 89.1058ZM479.717 70.4375C480.689 70.4375 481.252 71.3466 480.995 72.4648C480.894 72.9877 480.631 73.4655 480.243 73.8297C479.854 74.1938 479.361 74.4257 478.833 74.492C477.861 74.492 477.297 73.5829 477.55 72.4648C477.652 71.9427 477.916 71.4661 478.304 71.1024C478.692 70.7386 479.185 70.506 479.712 70.4375H479.717Z" fill="#333333"/>
<path fill-rule="evenodd" clip-rule="evenodd" d="M552.289 89.1063H555.768L559.941 75.8343H556.463L552.289 89.1063ZM559.912 70.438C560.884 70.438 561.443 71.3471 561.19 72.4652C561.087 72.9936 560.818 73.4752 560.422 73.8399C560.026 74.2045 559.524 74.4332 558.989 74.4925C558.017 74.4925 557.463 73.5834 557.716 72.4652C557.82 71.9379 558.089 71.4573 558.483 71.0928C558.878 70.7284 559.379 70.499 559.912 70.438Z" fill="#333333"/>
<path fill-rule="evenodd" clip-rule="evenodd" d="M572.918 91.0459H471.969V92.3673H572.918V91.0459Z" fill="#333333"/>
<path fill-rule="evenodd" clip-rule="evenodd" d="M453.753 91.0454H433.143V92.367H453.753V91.0454Z" fill="#333333"/>
<path d="M528.621 -12.6489C528.621 -12.6489 519.162 -3.12876 483.686 0.271426C483.686 0.271426 519.162 6.39141 528.621 13.1918C538.08 6.39141 573.557 0.271426 573.557 0.271426C538.08 -3.12876 528.621 -12.6489 528.621 -12.6489Z" fill="#1269A9"/>
<path d="M605.065 -0.762207C605.065 -0.762207 595.606 8.75796 560.129 12.1581C560.129 12.1581 595.605 18.2781 605.065 25.0785C614.524 18.2781 650 12.1581 650 12.1581C614.524 8.75796 605.065 -0.762207 605.065 -0.762207Z" fill="#98D1FA"/>
<path d="M446.498 -0.762207C446.498 -0.762207 437.039 8.75796 401.562 12.1581C401.562 12.1581 437.039 18.2781 446.498 25.0785C455.957 18.2781 491.434 12.1581 491.434 12.1581C455.957 8.75796 446.498 -0.762207 446.498 -0.762207Z" fill="#98D1FA"/>
<path d="M603.438 152.526C603.438 152.526 602.153 157.025 597.335 158.633C597.335 158.633 602.153 161.526 603.438 164.74C604.723 161.526 609.542 158.633 609.542 158.633C604.723 157.025 603.438 152.526 603.438 152.526Z" fill="white"/>
<path d="M247.372 261.042C283.72 190.187 367.726 147.158 446.424 159.084C473.27 163.152 501.606 172.757 526.572 162.077C541.993 155.479 553.39 142.051 567.741 133.366C603.608 111.66 656.643 127.521 674.722 165.361C669.283 172.002 666.255 177.913 660.816 184.554L444.134 449.125C443.304 448.445 446.575 437.678 445.746 436.997L247.372 261.042Z" fill="#98D1FA"/>
<path d="M297.529 202.075C286.257 180.069 261.838 164.847 237.187 166.577C204.461 168.874 178.932 197.755 146.556 203.058C132.799 205.311 116.318 204.165 107.765 215.18C99.0588 226.392 104.745 242.882 112.725 254.624C135.739 288.493 197.639 324.21 241.105 318.257C290.434 311.5 319.165 244.318 297.529 202.075Z" fill="#1269A9"/>
<path d="M252.421 214.559C277.518 167.909 336.793 140.103 391.388 149.37C422.918 154.723 453.195 171.062 484.951 167.191C516.34 163.364 540.8 140.887 567.352 124.655C593.905 108.423 650.056 100.199 675.202 134.009" stroke="#1269A9" stroke-width="2.48438" stroke-miterlimit="10"/>
<path d="M687.754 143.135C687.723 143.072 687.692 143.009 687.66 142.946C675.299 118.351 639.145 113.768 616.134 123.239C562.405 145.354 560.029 224.423 598.333 261.441C618.672 281.098 638.76 273.261 647.996 247.937C653.788 232.055 658.408 215.189 668.507 201.347C679.709 185.99 697.828 163.539 687.754 143.135Z" fill="#1269A9"/>
</g>
<defs>
<clipPath id="clip0_3191_93">
<rect width="650" height="176" fill="white"/>
</clipPath>
</defs>
</svg>
