<svg width="292" height="90" viewBox="0 0 292 90" fill="none" xmlns="http://www.w3.org/2000/svg">
<path d="M36.7565 11.1126C38.2268 11.1126 39.7276 11.3904 41.2592 11.946C42.7907 12.4399 44.1997 13.1808 45.4862 14.1685C46.8339 15.1563 47.9672 16.3293 48.8861 17.6875C49.8051 18.984 50.4177 20.4348 50.724 22.04C51.2141 25.0033 51.2141 27.6889 50.724 30.0966C50.2951 32.5043 49.5906 34.6651 48.6105 36.5789C47.6303 38.431 46.4663 40.067 45.1186 41.487C43.8321 42.9069 42.6069 44.0799 41.4429 45.006C40.279 45.8703 39.2682 46.5494 38.4105 47.0433C37.6141 47.5372 37.1853 47.7841 37.1241 47.7841C34.1835 49.6362 31.1205 50.377 27.9349 50.0066C24.8106 49.6979 21.8701 48.8028 19.1134 47.3211V68.1572L10.8432 60.1006V40.7461H10.7513V8.14923H4.59456L0 0H54.4915L59.0861 8.14923H19.1134V20.1879C19.4809 19.8792 20.2467 19.2309 21.4107 18.2432C22.5746 17.2554 23.9836 16.2367 25.6377 15.1872C27.2917 14.1377 29.0989 13.2116 31.0592 12.4091C33.0196 11.5447 34.9187 11.1126 36.7565 11.1126ZM19.1134 37.505C21.1962 41.0857 23.4016 43.3082 25.7295 44.1725C28.1187 44.9751 30.3854 44.9442 32.5295 44.0799C34.7349 43.1539 36.6952 41.6105 38.4105 39.4497C40.1258 37.2272 41.3817 34.8812 42.1781 32.4117C43.0357 29.9422 43.2808 27.5654 42.9132 25.2811C42.5456 22.9969 41.3817 21.2683 39.4213 20.0953C38.5637 19.6014 37.6754 19.2618 36.7565 19.0766C35.8988 18.8914 34.7349 19.0457 33.2646 19.5396C31.8556 19.9718 30.0178 20.867 27.7512 22.2252C25.4845 23.5834 22.6052 25.5898 19.1134 28.2445V37.505Z" fill="#1269A9"/>
<path d="M84.9132 11.1126C85.6484 11.4213 86.3835 11.9769 87.1186 12.7795C87.915 13.5203 88.6808 14.3846 89.4159 15.3724C90.2123 16.3602 90.9168 17.3788 91.5294 18.4284C92.2033 19.4779 92.7853 20.4348 93.2753 21.2991L87.2105 27.8741C86.843 27.2567 86.3835 26.5776 85.8322 25.8368C85.2808 25.0342 84.6988 24.3242 84.0862 23.7068C83.4736 23.0895 82.8304 22.5956 82.1565 22.2252C81.5439 21.8547 80.9619 21.7313 80.4106 21.8547C79.8592 22.04 79.0322 22.4104 77.9295 22.966C76.8268 23.4599 75.6322 24.0773 74.3458 24.8181C73.0593 25.4972 71.7728 26.238 70.4863 27.0406C69.1998 27.7815 68.0972 28.4606 67.1782 29.0779V35.0046V48.8028L58.908 40.7461V8.14923H55.508L50.9135 0H93.1834L97.778 8.14923H67.1782V20.1879V24.0773L76.2755 16.1132C76.7656 15.6811 77.3782 15.1255 78.1133 14.4464C78.8484 13.7673 79.6142 13.1499 80.4106 12.5943C81.2682 12.0386 82.0952 11.6065 82.8916 11.2978C83.688 10.9274 84.3619 10.8656 84.9132 11.1126Z" fill="#1269A9"/>
<path d="M126.063 11.3904C127.533 11.8226 128.942 12.4091 130.29 13.1499C131.637 13.829 132.801 14.6316 133.781 15.5576C134.823 16.4219 135.619 17.3788 136.171 18.4284C136.783 19.4779 137.09 20.5274 137.09 21.5769V48.8954L129.738 43.1539C128.636 44.2651 127.196 45.2838 125.419 46.2098C123.643 47.1359 121.713 47.8767 119.63 48.4323C117.547 48.9262 115.373 49.2041 113.106 49.2658C110.901 49.3275 108.787 49.0806 106.765 48.5249C104.744 47.9693 102.906 47.0741 101.252 45.8394C99.5979 44.6047 98.3114 42.9687 97.3925 40.9314C96.3511 38.7706 96.0141 36.6098 96.3817 34.449C96.8105 32.2882 97.6988 30.3435 99.0465 28.6149C100.456 26.8245 102.263 25.3737 104.468 24.2625C106.735 23.0895 109.185 22.4412 111.819 22.3178C114.515 22.1326 117.302 22.5647 120.182 23.6142C123.122 24.602 126.001 26.3615 128.819 28.8927V21.6695C128.819 19.8792 127.839 18.521 125.879 17.5949C123.98 16.6071 121.652 16.3602 118.895 16.8541C116.935 17.1628 115.373 17.4406 114.209 17.6875C113.045 17.9345 111.942 18.2432 110.901 18.6136C109.859 18.9223 108.726 19.3235 107.501 19.8174C106.275 20.3113 104.621 20.9596 102.538 21.7621L100.517 17.1319C102.6 16.2676 104.652 15.4341 106.674 14.6316C108.45 13.9525 110.319 13.2734 112.279 12.5943C114.3 11.9152 116.138 11.3904 117.792 11.02C117.915 10.9582 118.037 10.9274 118.16 10.9274C118.344 10.9274 118.497 10.8965 118.619 10.8348V8.14923H95.4628L90.8682 0H141.592L146.187 8.14923H126.063V11.3904ZM128.819 34.449C126.43 32.5969 123.918 31.2387 121.284 30.3744C118.65 29.4483 116.2 29.0162 113.933 29.0779C111.666 29.1397 109.706 29.6953 108.052 30.7448C106.398 31.7326 105.356 33.2143 104.928 35.1898C104.438 37.3506 104.56 39.0484 105.295 40.2831C106.03 41.5178 107.102 42.3822 108.511 42.8761C109.982 43.3699 111.666 43.5552 113.565 43.4317C115.526 43.3082 117.455 42.9687 119.355 42.413C121.315 41.8574 123.122 41.1783 124.776 40.3757C126.491 39.5731 127.839 38.7397 128.819 37.8754V34.449Z" fill="#1269A9"/>
<path d="M195.564 8.14923H186.191V53.0626C186.191 56.3346 185.395 58.9893 183.802 61.0266C182.209 63.1257 180.402 64.6999 178.38 65.7495C176.236 66.8607 174.153 67.6016 172.132 67.972C170.171 68.3424 168.242 68.4659 166.343 68.3424C164.505 68.2807 162.728 67.972 161.013 67.4163C159.359 66.9224 157.797 66.336 156.326 65.6569C152.957 64.0517 149.802 61.8601 146.862 59.0819V58.9893L151.272 53.9886C152.804 55.532 154.397 57.0755 156.051 58.6189C157.705 60.1623 159.451 61.397 161.288 62.3231C163.126 63.3109 165.056 63.8665 167.078 63.99C169.161 64.1752 171.397 63.6813 173.786 62.5083C175.011 61.8292 175.991 60.9957 176.726 60.008C177.523 59.0819 177.921 58.0632 177.921 56.952V40.7461C177.369 41.0548 176.573 41.6413 175.532 42.5056C174.49 43.3699 173.234 44.2651 171.764 45.1912C170.294 46.1172 168.609 46.9507 166.71 47.6915C164.811 48.4323 162.759 48.8028 160.553 48.8028C158.777 48.8028 156.939 48.4015 155.04 47.5989C153.141 46.7346 151.487 45.6542 150.078 44.3577C148.669 43.0613 147.627 41.6413 146.953 40.0979C146.341 38.5545 146.402 37.0419 147.137 35.5603C148.24 33.3378 149.22 31.4857 150.078 30.004C150.935 28.4606 151.487 26.9171 151.732 25.3737C151.977 23.7686 151.793 21.9782 151.18 20.0027C150.629 17.9653 149.465 15.4033 147.689 12.3164C148.853 12.6251 149.986 12.9647 151.089 13.3351C152.191 13.6438 153.202 14.0759 154.121 14.6316C155.04 15.1872 155.836 15.928 156.51 16.8541C157.245 17.7184 157.827 18.9223 158.256 20.4657C158.93 22.9351 158.991 25.2194 158.44 27.3184C157.889 29.4175 157.276 31.3004 156.602 32.9673C155.989 34.6342 155.591 36.085 155.407 37.3198C155.224 38.4928 155.836 39.3879 157.245 40.0053C158.164 40.4375 159.114 40.7461 160.094 40.9314C161.074 41.0548 162.299 40.9005 163.77 40.4683C165.301 39.9744 167.17 39.0793 169.375 37.7828C171.642 36.4863 174.49 34.5416 177.921 31.9487V8.14923H143.002L138.408 0H190.969L195.564 8.14923Z" fill="#1269A9"/>
<path d="M224.056 11.3904C225.526 11.8226 226.935 12.4091 228.283 13.1499C229.631 13.829 230.795 14.6316 231.775 15.5576C232.816 16.4219 233.613 17.3788 234.164 18.4284C234.777 19.4779 235.083 20.5274 235.083 21.5769V48.8954L227.732 43.1539C226.629 44.2651 225.189 45.2838 223.413 46.2098C221.636 47.1359 219.706 47.8767 217.624 48.4323C215.541 48.9262 213.366 49.2041 211.099 49.2658C208.894 49.3275 206.78 49.0806 204.759 48.5249C202.737 47.9693 200.899 47.0741 199.245 45.8394C197.591 44.6047 196.305 42.9687 195.386 40.9314C194.344 38.7706 194.008 36.6098 194.375 34.449C194.804 32.2882 195.692 30.3435 197.04 28.6149C198.449 26.8245 200.256 25.3737 202.462 24.2625C204.728 23.0895 207.179 22.4412 209.813 22.3178C212.508 22.1326 215.296 22.5647 218.175 23.6142C221.115 24.602 223.995 26.3615 226.813 28.8927V21.6695C226.813 19.8792 225.833 18.521 223.872 17.5949C221.973 16.6071 219.645 16.3602 216.888 16.8541C214.928 17.1628 213.366 17.4406 212.202 17.6875C211.038 17.9345 209.935 18.2432 208.894 18.6136C207.852 18.9223 206.719 19.3235 205.494 19.8174C204.269 20.3113 202.615 20.9596 200.532 21.7621L198.51 17.1319C200.593 16.2676 202.645 15.4341 204.667 14.6316C206.443 13.9525 208.312 13.2734 210.272 12.5943C212.294 11.9152 214.132 11.3904 215.786 11.02C215.908 10.9582 216.031 10.9274 216.153 10.9274C216.337 10.9274 216.49 10.8965 216.613 10.8348V8.14923H193.456L188.862 0H239.586L244.18 8.14923H224.056V11.3904ZM226.813 34.449C224.424 32.5969 221.912 31.2387 219.278 30.3744C216.643 29.4483 214.193 29.0162 211.926 29.0779C209.66 29.1397 207.699 29.6953 206.045 30.7448C204.391 31.7326 203.35 33.2143 202.921 35.1898C202.431 37.3506 202.553 39.0484 203.289 40.2831C204.024 41.5178 205.096 42.3822 206.505 42.8761C207.975 43.3699 209.66 43.5552 211.559 43.4317C213.519 43.3082 215.449 42.9687 217.348 42.413C219.308 41.8574 221.115 41.1783 222.77 40.3757C224.485 39.5731 225.833 38.7397 226.813 37.8754V34.449Z" fill="#1269A9"/>
<path d="M264.795 25.9294C265.776 26.7319 266.97 27.4419 268.379 28.0593C269.788 28.6766 271.228 29.3249 272.698 30.004C274.23 30.6213 275.7 31.2696 277.109 31.9487C278.579 32.566 279.835 33.276 280.876 34.0786C281.979 34.8194 282.775 35.6529 283.266 36.5789C283.817 37.505 283.939 38.5854 283.633 39.8201C282.959 42.413 281.611 44.4503 279.59 45.932C277.568 47.4137 275.179 48.4941 272.422 49.1732C273.157 49.7288 273.862 50.1918 274.536 50.5623C275.21 50.9327 276.159 51.3957 277.384 51.9513L272.514 57.3224C270.738 56.4581 269.114 55.3777 267.644 54.0812C266.174 52.8465 264.857 51.4266 263.693 49.8214C260.568 49.6362 257.505 49.0497 254.504 48.0619C251.502 47.0741 248.929 45.7468 246.785 44.0799C244.702 42.413 243.232 40.4375 242.374 38.1532C241.577 35.8689 241.761 33.3378 242.925 30.5596C243.354 29.4483 244.059 28.584 245.039 27.9667C246.019 27.3493 247.091 26.948 248.255 26.7628C249.419 26.5776 250.613 26.5776 251.839 26.7628C253.064 26.948 254.167 27.2258 255.147 27.5962C256.74 28.2754 258.026 29.294 259.006 30.6522C260.048 31.9487 260.967 33.3686 261.763 34.912C262.559 36.4554 263.325 37.9989 264.06 39.5423C264.857 41.0857 265.806 42.413 266.909 43.5243C268.624 43.2773 270.125 42.8452 271.412 42.2278C272.759 41.6105 273.678 40.8696 274.168 40.0053C274.72 39.0793 274.72 38.0915 274.168 37.0419C273.678 35.9924 272.422 34.8503 270.401 33.6156C269.604 33.1834 268.624 32.7513 267.46 32.3191C266.358 31.8252 265.163 31.2696 263.876 30.6522C262.59 30.0348 261.273 29.294 259.925 28.4297C258.577 27.5654 257.291 26.4541 256.066 25.0959C254.289 23.1203 253.309 21.1756 253.125 19.2618C253.003 17.2862 253.462 15.6194 254.504 14.2611C255.606 12.9029 257.138 12.0078 259.098 11.5756C261.12 11.0817 263.417 11.3595 265.99 12.4091V8.14923H240.444L235.85 0H286.574L291.168 8.14923H273.433V18.4284C269.206 17.0702 266.143 16.5454 264.244 16.8541C262.345 17.101 261.212 17.7493 260.844 18.7988C260.538 19.8483 260.813 21.083 261.671 22.503C262.529 23.8612 263.57 25.0033 264.795 25.9294ZM251.563 33.6156C250.705 34.7268 250.399 35.8998 250.644 37.1345C250.889 38.3075 251.471 39.3879 252.39 40.3757C253.309 41.3635 254.442 42.197 255.79 42.8761C257.138 43.4934 258.424 43.7712 259.649 43.7095C259.098 42.7834 258.577 41.8265 258.087 40.8387C257.597 39.7892 257.046 38.8014 256.433 37.8754C255.821 36.9493 255.116 36.1159 254.32 35.3751C253.523 34.6342 252.604 34.0477 251.563 33.6156Z" fill="#1269A9"/>
<path d="M26.221 80.3154C26.1096 81.2294 26.0538 81.8425 26.0538 82.1546C26.0538 82.6785 26.143 83.0408 26.3214 83.2415C26.4997 83.4421 26.7728 83.5424 27.1407 83.5424C27.5419 83.5424 27.9544 83.4031 28.378 83.1244C28.8015 82.8346 29.1638 82.489 29.4648 82.0878L30.4011 75.0318H32.14L31.0699 82.9405L31.0532 83.1244C31.0532 83.2582 31.0755 83.3641 31.1201 83.4421C31.1758 83.509 31.2427 83.5424 31.3207 83.5424C31.5437 83.5424 31.8279 83.3752 32.1735 83.0408L32.3908 83.4923C32.2571 83.704 32.0063 83.9437 31.6384 84.2112C31.2706 84.4676 30.8637 84.5958 30.4178 84.5958C30.0723 84.5958 29.8103 84.5066 29.632 84.3283C29.4536 84.1499 29.3756 83.8991 29.3979 83.5759C29.3979 83.5982 29.4146 83.4087 29.4481 83.0074L29.4313 82.9906C28.5396 84.0719 27.5364 84.6125 26.4217 84.6125C25.7863 84.6125 25.2736 84.4453 24.8834 84.1109C24.4933 83.7654 24.2926 83.2024 24.2815 82.4222C24.2815 81.8983 24.3874 80.9285 24.5992 79.5128L25.0339 76.4029L24.1477 75.918L24.2648 75.2826L26.5387 74.9649L26.8899 75.1488L26.3214 79.5797L26.221 80.3154ZM36.5986 77.3225C36.7323 76.9546 36.9441 76.5924 37.234 76.2357C37.5349 75.8678 37.8916 75.5669 38.304 75.3328C38.7165 75.0875 39.1512 74.9649 39.6082 74.9649C39.8758 74.9649 40.0541 75.0039 40.1433 75.082L39.7587 77.0048C39.5915 76.8822 39.3184 76.8209 38.9394 76.8209C38.4824 76.8209 38.0254 76.9658 37.5684 77.2556C37.1225 77.5343 36.7825 77.93 36.5484 78.4427L35.7626 84.4453H34.0404L35.0938 76.4029L34.241 75.9849L34.3748 75.3495L36.4314 74.9649L36.7825 75.1656L36.6655 76.6704L36.5986 77.3225ZM46.2818 76.5868C46.1815 76.453 45.9586 76.3081 45.613 76.1521C45.2786 75.996 44.8941 75.918 44.4593 75.918C43.9577 75.918 43.5564 76.0294 43.2555 76.2524C42.9545 76.4642 42.804 76.7763 42.804 77.1887C42.804 77.5454 42.9266 77.8742 43.1719 78.1752C43.4171 78.465 43.7794 78.7827 44.2587 79.1283C44.6488 79.4181 44.9665 79.68 45.2117 79.9141C45.457 80.1371 45.6688 80.4213 45.8471 80.7669C46.0255 81.1013 46.1146 81.4803 46.1146 81.9038C46.1146 82.4835 45.9586 82.9795 45.6465 83.3919C45.3344 83.7932 44.9108 84.0998 44.3757 84.3116C43.8518 84.5122 43.2778 84.6125 42.6535 84.6125C42.1519 84.6125 41.6503 84.5568 41.1487 84.4453C40.6471 84.3338 40.3183 84.2112 40.1622 84.0775L40.4465 82.8569C40.6694 83.0352 40.9871 83.2024 41.3995 83.3585C41.812 83.5146 42.2411 83.5926 42.687 83.5926C43.1551 83.5926 43.5564 83.4923 43.8908 83.2916C44.2252 83.091 44.3924 82.7621 44.3924 82.3051C44.3924 81.915 44.2587 81.5806 43.9912 81.3019C43.7236 81.0232 43.3279 80.7 42.804 80.3321C41.667 79.5407 41.0986 78.6267 41.0986 77.59C41.0986 77.0661 41.2435 76.6035 41.5333 76.2022C41.8342 75.8009 42.2411 75.4944 42.7539 75.2826C43.2666 75.0597 43.8351 74.9482 44.4593 74.9482C44.8606 74.9482 45.2675 74.9872 45.6799 75.0652C46.1035 75.1321 46.3989 75.199 46.5661 75.2659L46.2818 76.5868ZM50.2074 80.3154C50.096 81.2294 50.0402 81.8425 50.0402 82.1546C50.0402 82.6785 50.1294 83.0408 50.3078 83.2415C50.4861 83.4421 50.7592 83.5424 51.1271 83.5424C51.5283 83.5424 51.9408 83.4031 52.3644 83.1244C52.7879 82.8346 53.1502 82.489 53.4512 82.0878L54.3875 75.0318H56.1264L55.0563 82.9405L55.0396 83.1244C55.0396 83.2582 55.0619 83.3641 55.1065 83.4421C55.1622 83.509 55.2291 83.5424 55.3071 83.5424C55.5301 83.5424 55.8143 83.3752 56.1599 83.0408L56.3772 83.4923C56.2435 83.704 55.9927 83.9437 55.6248 84.2112C55.257 84.4676 54.8501 84.5958 54.4042 84.5958C54.0587 84.5958 53.7967 84.5066 53.6184 84.3283C53.44 84.1499 53.362 83.8991 53.3843 83.5759C53.3843 83.5982 53.401 83.4087 53.4344 83.0074L53.4177 82.9906C52.526 84.0719 51.5228 84.6125 50.4081 84.6125C49.7727 84.6125 49.26 84.4453 48.8698 84.1109C48.4797 83.7654 48.279 83.2024 48.2679 82.4222C48.2679 81.8983 48.3738 80.9285 48.5856 79.5128L49.0203 76.4029L48.1341 75.918L48.2512 75.2826L50.5251 74.9649L50.8762 75.1488L50.3078 79.5797L50.2074 80.3154ZM60.1324 83.1244C60.1324 83.2582 60.1546 83.3641 60.1992 83.4421C60.255 83.509 60.3218 83.5424 60.3999 83.5424C60.5225 83.5424 60.6451 83.509 60.7677 83.4421C60.9015 83.3641 61.0631 83.2359 61.2526 83.0575L61.47 83.4923C61.3028 83.7263 61.0464 83.9716 60.7008 84.2279C60.3553 84.4843 59.9484 84.6125 59.4803 84.6125C59.0901 84.6125 58.7892 84.5233 58.5774 84.345C58.3767 84.1666 58.2931 83.9047 58.3266 83.5591C58.3823 83.0687 58.5272 82.0153 58.7613 80.399C59.0734 78.2365 59.2629 76.8822 59.3298 76.336L58.2931 75.9347L58.4102 75.3495L60.8848 74.9649L61.2693 75.1488L60.1491 82.9572L60.1324 83.1244ZM60.6005 73.1926C60.3441 73.1926 60.1212 73.0978 59.9317 72.9083C59.7534 72.7188 59.6642 72.4903 59.6642 72.2228C59.6642 71.8772 59.7812 71.5819 60.0153 71.3366C60.2605 71.0914 60.5448 70.9688 60.868 70.9688C61.169 70.9688 61.4031 71.0635 61.5703 71.253C61.7375 71.4314 61.8211 71.6543 61.8211 71.9218C61.81 72.2785 61.6929 72.5795 61.47 72.8247C61.247 73.07 60.9572 73.1926 60.6005 73.1926ZM66.0581 77.1051C66.5151 76.4697 67.0446 75.9514 67.6465 75.5501C68.2485 75.1488 68.8671 74.9482 69.5025 74.9482C70.1379 74.9482 70.6228 75.1377 70.9572 75.5167C71.3027 75.8957 71.4755 76.5143 71.4755 77.3726C71.4755 77.7851 71.3696 78.5654 71.1578 79.7135L71.0575 80.3154L70.9739 80.8003C70.7732 81.7701 70.6673 82.5058 70.6562 83.0074V83.1077C70.6562 83.3975 70.7286 83.5424 70.8736 83.5424C71.0965 83.5424 71.3584 83.4087 71.6594 83.1411L71.8768 83.5926C71.743 83.7821 71.4978 83.9994 71.1411 84.2447C70.7844 84.4899 70.3775 84.6125 69.9205 84.6125C69.1737 84.6125 68.8002 84.2614 68.8002 83.5591C68.8002 83.2136 68.9061 82.489 69.1179 81.3855L69.235 80.7669L69.3019 80.3656C69.5471 79.0614 69.6697 78.1195 69.6697 77.5398C69.6585 77.0271 69.5805 76.676 69.4356 76.4865C69.2907 76.297 69.0399 76.2022 68.6832 76.2022C68.2596 76.2022 67.7803 76.4196 67.2453 76.8543C66.7214 77.2779 66.2699 77.8018 65.8909 78.426L65.0883 84.4453H63.3662L64.4363 76.3861L63.6002 75.9681L63.734 75.3328L65.9076 74.9482L66.2588 75.1321L66.0581 77.1051ZM80.2046 85.0807C80.0932 85.9167 79.7978 86.5967 79.3185 87.1206C78.8391 87.6556 78.2707 88.0402 77.613 88.2743C76.9665 88.5083 76.3088 88.6254 75.64 88.6254C75.2945 88.6254 74.9266 88.5919 74.5365 88.5251C74.1575 88.4582 73.8788 88.3857 73.7005 88.3077L74.0516 86.9032C74.2968 87.037 74.6201 87.1651 75.0214 87.2878C75.4226 87.4215 75.8184 87.4884 76.2085 87.4884C76.9107 87.4884 77.4291 87.3491 77.7635 87.0704C78.0979 86.8029 78.3152 86.3013 78.4156 85.5656L78.7165 83.3919C78.4044 83.7486 78.031 84.044 77.5963 84.2781C77.1727 84.501 76.7045 84.6125 76.1918 84.6125C75.2666 84.6125 74.5699 84.2948 74.1017 83.6595C73.6447 83.0129 73.4162 82.1658 73.4162 81.118C73.4162 80.1594 73.628 79.2063 74.0516 78.2588C74.4863 77.3002 75.1105 76.5088 75.9242 75.8845C76.738 75.2603 77.691 74.9482 78.7834 74.9482C79.0844 74.9482 79.4021 74.9872 79.7365 75.0652C80.082 75.1321 80.3774 75.2157 80.6226 75.316L81.7095 74.9482L80.2046 85.0807ZM79.7699 76.1855C79.4801 75.9737 79.0844 75.8678 78.5828 75.8678C77.8471 75.8678 77.2284 76.1353 76.7268 76.6704C76.2252 77.2054 75.8518 77.8742 75.6066 78.6768C75.3613 79.4682 75.2387 80.2485 75.2387 81.0177C75.2387 81.7979 75.3669 82.411 75.6233 82.8569C75.8908 83.2916 76.2587 83.509 76.7268 83.509C77.1504 83.509 77.5573 83.3808 77.9474 83.1244C78.3375 82.8569 78.6497 82.5559 78.8837 82.2215L79.7699 76.1855ZM96.0813 72.0222L95.9475 74.7141H94.8942L94.6099 72.9585L90.9147 72.8247L90.2961 77.473L94.1585 77.3058L94.008 78.6434L90.1958 78.4762L89.5437 83.509L94.1418 83.3083L95.0614 81.2852L96.098 81.4524L95.4292 84.4453H86.3836L86.4504 83.7598L87.7212 83.5591L89.0588 72.9418L87.9218 72.7578L88.0054 72.0222H96.0813ZM98.5781 76.6202C98.5001 76.4419 98.4109 76.3025 98.3106 76.2022C98.2214 76.1019 98.1099 76.0517 97.9762 76.0517C97.8313 76.0517 97.6919 76.0852 97.5582 76.1521C97.4244 76.2189 97.313 76.3025 97.2238 76.4029L96.9395 75.918C97.0621 75.7396 97.3018 75.539 97.6585 75.316C98.0152 75.082 98.4221 74.9649 98.8791 74.9649C99.2581 74.9649 99.5479 75.0374 99.7485 75.1823C99.9603 75.3272 100.111 75.539 100.2 75.8177L100.986 78.6099L103.41 75.0318H105.149L101.487 79.7469L102.909 82.79C103.098 83.247 103.304 83.4755 103.527 83.4755C103.784 83.4755 104.085 83.3083 104.43 82.9739L104.714 83.4588C104.659 83.5591 104.531 83.704 104.33 83.8935C104.129 84.0719 103.878 84.2391 103.577 84.3952C103.277 84.5401 102.948 84.6125 102.591 84.6125C102.234 84.6125 101.967 84.5401 101.788 84.3952C101.61 84.2502 101.471 84.0329 101.37 83.7431L100.451 80.7836L97.9427 84.4453H96.1704L99.9325 79.6466L98.5781 76.6202ZM111.537 76.9881C110.901 76.3527 110.4 76.035 110.032 76.035C109.519 76.035 109.057 76.2301 108.644 76.6202C108.232 77.0104 107.908 77.551 107.674 78.2421C107.44 78.9332 107.323 79.7246 107.323 80.6164C107.323 82.5113 107.914 83.4588 109.096 83.4588C109.564 83.4588 109.965 83.3752 110.299 83.208C110.634 83.0408 110.991 82.7844 111.37 82.4389L111.721 83.0743C111.442 83.4532 111.024 83.8044 110.467 84.1276C109.909 84.4509 109.257 84.6125 108.51 84.6125C107.563 84.6125 106.822 84.2837 106.287 83.626C105.751 82.9572 105.484 82.0264 105.484 80.8337C105.484 79.9197 105.673 79.0112 106.052 78.1083C106.443 77.1943 107.011 76.4419 107.758 75.8511C108.516 75.2492 109.408 74.9482 110.433 74.9482C110.756 74.9482 111.096 74.9816 111.453 75.0485C111.81 75.1154 112.105 75.2046 112.339 75.316L111.871 77.0717L111.537 76.9881ZM119.951 82.8402C119.662 83.2749 119.193 83.6818 118.547 84.0607C117.912 84.4397 117.198 84.6292 116.407 84.6292C115.649 84.6292 115.019 84.462 114.517 84.1276C114.016 83.7821 113.648 83.3362 113.414 82.79C113.18 82.2327 113.063 81.6363 113.063 81.0009C113.063 79.9197 113.28 78.9165 113.715 77.9913C114.15 77.055 114.746 76.3137 115.504 75.7675C116.262 75.2213 117.098 74.9482 118.012 74.9482C118.814 74.9482 119.416 75.1377 119.818 75.5167C120.23 75.8957 120.436 76.3973 120.436 77.0215C120.436 77.8241 120.124 78.4985 119.5 79.0447C118.876 79.5797 118.135 79.981 117.276 80.2485C116.418 80.5161 115.643 80.6554 114.952 80.6665C114.907 81.458 115.036 82.1323 115.337 82.6897C115.649 83.247 116.139 83.5257 116.808 83.5257C117.31 83.5257 117.795 83.4087 118.263 83.1746C118.742 82.9293 119.177 82.6005 119.567 82.1881L119.951 82.8402ZM117.611 75.8511C117.109 75.8511 116.663 76.0573 116.273 76.4697C115.894 76.8822 115.593 77.4005 115.37 78.0247C115.147 78.6378 115.013 79.2453 114.969 79.8472C115.504 79.8249 116.061 79.7079 116.641 79.4961C117.232 79.2732 117.722 78.9611 118.112 78.5598C118.502 78.1473 118.697 77.6792 118.697 77.1553C118.697 76.7317 118.603 76.4084 118.413 76.1855C118.224 75.9626 117.956 75.8511 117.611 75.8511ZM123.874 82.9572C123.863 83.0018 123.857 83.0631 123.857 83.1411C123.857 83.4087 123.946 83.5424 124.124 83.5424C124.336 83.5424 124.62 83.3808 124.977 83.0575L125.195 83.4923C125.038 83.7375 124.799 83.9883 124.476 84.2447C124.152 84.4899 123.745 84.6125 123.255 84.6125C122.898 84.6125 122.614 84.5289 122.402 84.3617C122.19 84.1945 122.085 83.9326 122.085 83.5759C122.085 83.509 122.09 83.4087 122.101 83.2749C122.124 83.1411 122.14 83.0464 122.151 82.9906L123.656 72.1726L122.62 71.8717L122.77 71.2697L125.144 70.9688L125.496 71.1861L123.874 82.9572ZM128.903 82.9572C128.892 83.0018 128.886 83.0631 128.886 83.1411C128.886 83.4087 128.975 83.5424 129.154 83.5424C129.365 83.5424 129.65 83.3808 130.006 83.0575L130.224 83.4923C130.068 83.7375 129.828 83.9883 129.505 84.2447C129.181 84.4899 128.775 84.6125 128.284 84.6125C127.927 84.6125 127.643 84.5289 127.431 84.3617C127.22 84.1945 127.114 83.9326 127.114 83.5759C127.114 83.509 127.119 83.4087 127.13 83.2749C127.153 83.1411 127.169 83.0464 127.181 82.9906L128.685 72.1726L127.649 71.8717L127.799 71.2697L130.174 70.9688L130.525 71.1861L128.903 82.9572ZM138.664 82.8402C138.374 83.2749 137.906 83.6818 137.259 84.0607C136.624 84.4397 135.91 84.6292 135.119 84.6292C134.361 84.6292 133.731 84.462 133.23 84.1276C132.728 83.7821 132.36 83.3362 132.126 82.79C131.892 82.2327 131.775 81.6363 131.775 81.0009C131.775 79.9197 131.992 78.9165 132.427 77.9913C132.862 77.055 133.458 76.3137 134.216 75.7675C134.974 75.2213 135.81 74.9482 136.724 74.9482C137.527 74.9482 138.129 75.1377 138.53 75.5167C138.942 75.8957 139.149 76.3973 139.149 77.0215C139.149 77.8241 138.837 78.4985 138.212 79.0447C137.588 79.5797 136.847 79.981 135.989 80.2485C135.13 80.5161 134.356 80.6554 133.664 80.6665C133.62 81.458 133.748 82.1323 134.049 82.6897C134.361 83.247 134.852 83.5257 135.52 83.5257C136.022 83.5257 136.507 83.4087 136.975 83.1746C137.454 82.9293 137.889 82.6005 138.279 82.1881L138.664 82.8402ZM136.323 75.8511C135.821 75.8511 135.375 76.0573 134.985 76.4697C134.606 76.8822 134.305 77.4005 134.082 78.0247C133.859 78.6378 133.726 79.2453 133.681 79.8472C134.216 79.8249 134.774 79.7079 135.353 79.4961C135.944 79.2732 136.434 78.9611 136.825 78.5598C137.215 78.1473 137.41 77.6792 137.41 77.1553C137.41 76.7317 137.315 76.4084 137.126 76.1855C136.936 75.9626 136.668 75.8511 136.323 75.8511ZM143.422 77.1051C143.879 76.4697 144.408 75.9514 145.01 75.5501C145.612 75.1488 146.231 74.9482 146.866 74.9482C147.502 74.9482 147.987 75.1377 148.321 75.5167C148.667 75.8957 148.839 76.5143 148.839 77.3726C148.839 77.7851 148.733 78.5654 148.522 79.7135L148.421 80.3154L148.338 80.8003C148.137 81.7701 148.031 82.5058 148.02 83.0074V83.1077C148.02 83.3975 148.093 83.5424 148.237 83.5424C148.46 83.5424 148.722 83.4087 149.023 83.1411L149.241 83.5926C149.107 83.7821 148.862 83.9994 148.505 84.2447C148.148 84.4899 147.741 84.6125 147.284 84.6125C146.538 84.6125 146.164 84.2614 146.164 83.5591C146.164 83.2136 146.27 82.489 146.482 81.3855L146.599 80.7669L146.666 80.3656C146.911 79.0614 147.034 78.1195 147.034 77.5398C147.022 77.0271 146.944 76.676 146.799 76.4865C146.655 76.297 146.404 76.2022 146.047 76.2022C145.623 76.2022 145.144 76.4196 144.609 76.8543C144.085 77.2779 143.634 77.8018 143.255 78.426L142.452 84.4453H140.73L141.8 76.3861L140.964 75.9681L141.098 75.3328L143.272 74.9482L143.623 75.1321L143.422 77.1051ZM156.783 76.9881C156.147 76.3527 155.646 76.035 155.278 76.035C154.765 76.035 154.302 76.2301 153.89 76.6202C153.478 77.0104 153.154 77.551 152.92 78.2421C152.686 78.9332 152.569 79.7246 152.569 80.6164C152.569 82.5113 153.16 83.4588 154.341 83.4588C154.81 83.4588 155.211 83.3752 155.545 83.208C155.88 83.0408 156.236 82.7844 156.615 82.4389L156.967 83.0743C156.688 83.4532 156.27 83.8044 155.713 84.1276C155.155 84.4509 154.503 84.6125 153.756 84.6125C152.809 84.6125 152.068 84.2837 151.532 83.626C150.997 82.9572 150.73 82.0264 150.73 80.8337C150.73 79.9197 150.919 79.0112 151.298 78.1083C151.689 77.1943 152.257 76.4419 153.004 75.8511C153.762 75.2492 154.654 74.9482 155.679 74.9482C156.002 74.9482 156.342 74.9816 156.699 75.0485C157.056 75.1154 157.351 75.2046 157.585 75.316L157.117 77.0717L156.783 76.9881ZM165.197 82.8402C164.908 83.2749 164.439 83.6818 163.793 84.0607C163.158 84.4397 162.444 84.6292 161.653 84.6292C160.895 84.6292 160.265 84.462 159.763 84.1276C159.262 83.7821 158.894 83.3362 158.66 82.79C158.426 82.2327 158.309 81.6363 158.309 81.0009C158.309 79.9197 158.526 78.9165 158.961 77.9913C159.395 77.055 159.992 76.3137 160.75 75.7675C161.508 75.2213 162.344 74.9482 163.258 74.9482C164.06 74.9482 164.662 75.1377 165.064 75.5167C165.476 75.8957 165.682 76.3973 165.682 77.0215C165.682 77.8241 165.37 78.4985 164.746 79.0447C164.122 79.5797 163.38 79.981 162.522 80.2485C161.664 80.5161 160.889 80.6554 160.198 80.6665C160.153 81.458 160.282 82.1323 160.583 82.6897C160.895 83.247 161.385 83.5257 162.054 83.5257C162.556 83.5257 163.04 83.4087 163.509 83.1746C163.988 82.9293 164.423 82.6005 164.813 82.1881L165.197 82.8402ZM162.857 75.8511C162.355 75.8511 161.909 76.0573 161.519 76.4697C161.14 76.8822 160.839 77.4005 160.616 78.0247C160.393 78.6378 160.259 79.2453 160.215 79.8472C160.75 79.8249 161.307 79.7079 161.887 79.4961C162.478 79.2732 162.968 78.9611 163.358 78.5598C163.748 78.1473 163.943 77.6792 163.943 77.1553C163.943 76.7317 163.849 76.4084 163.659 76.1855C163.47 75.9626 163.202 75.8511 162.857 75.8511ZM173.288 83.1244C173.288 83.2582 173.31 83.3641 173.355 83.4421C173.411 83.509 173.478 83.5424 173.556 83.5424C173.678 83.5424 173.801 83.509 173.923 83.4421C174.057 83.3641 174.219 83.2359 174.408 83.0575L174.626 83.4923C174.458 83.7263 174.202 83.9716 173.857 84.2279C173.511 84.4843 173.104 84.6125 172.636 84.6125C172.246 84.6125 171.945 84.5233 171.733 84.345C171.532 84.1666 171.449 83.9047 171.482 83.5591C171.538 83.0687 171.683 82.0153 171.917 80.399C172.229 78.2365 172.419 76.8822 172.485 76.336L171.449 75.9347L171.566 75.3495L174.04 74.9649L174.425 75.1488L173.305 82.9572L173.288 83.1244ZM173.756 73.1926C173.5 73.1926 173.277 73.0978 173.087 72.9083C172.909 72.7188 172.82 72.4903 172.82 72.2228C172.82 71.8772 172.937 71.5819 173.171 71.3366C173.416 71.0914 173.7 70.9688 174.024 70.9688C174.325 70.9688 174.559 71.0635 174.726 71.253C174.893 71.4314 174.977 71.6543 174.977 71.9218C174.966 72.2785 174.849 72.5795 174.626 72.8247C174.403 73.07 174.113 73.1926 173.756 73.1926ZM179.214 77.1051C179.671 76.4697 180.2 75.9514 180.802 75.5501C181.404 75.1488 182.023 74.9482 182.658 74.9482C183.294 74.9482 183.778 75.1377 184.113 75.5167C184.458 75.8957 184.631 76.5143 184.631 77.3726C184.631 77.7851 184.525 78.5654 184.313 79.7135L184.213 80.3154L184.13 80.8003C183.929 81.7701 183.823 82.5058 183.812 83.0074V83.1077C183.812 83.3975 183.884 83.5424 184.029 83.5424C184.252 83.5424 184.514 83.4087 184.815 83.1411L185.032 83.5926C184.899 83.7821 184.653 83.9994 184.297 84.2447C183.94 84.4899 183.533 84.6125 183.076 84.6125C182.329 84.6125 181.956 84.2614 181.956 83.5591C181.956 83.2136 182.062 82.489 182.274 81.3855L182.391 80.7669L182.458 80.3656C182.703 79.0614 182.825 78.1195 182.825 77.5398C182.814 77.0271 182.736 76.676 182.591 76.4865C182.446 76.297 182.196 76.2022 181.839 76.2022C181.415 76.2022 180.936 76.4196 180.401 76.8543C179.877 77.2779 179.426 77.8018 179.047 78.426L178.244 84.4453H176.522L177.592 76.3861L176.756 75.9681L176.89 75.3328L179.063 74.9482L179.414 75.1321L179.214 77.1051ZM199.585 83.7096C199.273 83.7431 198.861 83.8322 198.348 83.9771C197.702 84.1666 197.127 84.3171 196.626 84.4286C196.124 84.5289 195.572 84.5791 194.971 84.5791C193.978 84.5791 193.154 84.3227 192.496 83.8099C191.849 83.2972 191.376 82.634 191.075 81.8202C190.774 80.9954 190.623 80.1092 190.623 79.1617C190.623 77.7126 190.891 76.4419 191.426 75.3495C191.972 74.246 192.724 73.3932 193.683 72.7913C194.642 72.1894 195.729 71.8884 196.944 71.8884C197.713 71.8884 198.326 71.9274 198.783 72.0054C199.251 72.0835 199.758 72.1949 200.304 72.3398L200.689 72.4402L200.204 74.9649H198.983L198.933 73.226C198.699 73.0811 198.421 72.9696 198.097 72.8916C197.785 72.8024 197.373 72.7578 196.86 72.7578C195.89 72.7578 195.082 73.0644 194.436 73.6775C193.789 74.2794 193.31 75.0597 192.998 76.0183C192.697 76.9769 192.546 77.9969 192.546 79.0781C192.546 80.36 192.78 81.4412 193.248 82.3218C193.728 83.2024 194.441 83.6427 195.389 83.6427C195.868 83.6427 196.33 83.5926 196.776 83.4923C197.222 83.3919 197.579 83.2415 197.846 83.0408L198.331 79.4961L196.275 79.3624L196.375 78.4595H200.321L199.585 83.7096ZM206.607 74.9482C207.711 74.9482 208.558 75.2826 209.149 75.9514C209.74 76.6202 210.035 77.5733 210.035 78.8106C210.035 79.8249 209.829 80.778 209.416 81.6697C209.015 82.5615 208.441 83.2805 207.694 83.8267C206.958 84.3617 206.122 84.6292 205.186 84.6292C204.083 84.6292 203.235 84.2948 202.645 83.626C202.054 82.9572 201.758 82.0042 201.758 80.7669C201.758 79.7413 201.959 78.7827 202.36 77.891C202.773 76.9992 203.347 76.2858 204.083 75.7508C204.829 75.2157 205.671 74.9482 206.607 74.9482ZM206.373 75.8678C205.794 75.8678 205.298 76.113 204.885 76.6035C204.473 77.0828 204.161 77.6959 203.949 78.4427C203.748 79.1784 203.648 79.9308 203.648 80.7C203.648 82.7287 204.255 83.7431 205.47 83.7431C206.039 83.7431 206.524 83.4978 206.925 83.0074C207.326 82.5169 207.627 81.8983 207.828 81.1514C208.029 80.4046 208.129 79.6466 208.129 78.8775C208.129 76.871 207.544 75.8678 206.373 75.8678ZM211.995 76.6202C211.939 76.2747 211.811 76.0963 211.61 76.0852C211.51 76.0852 211.421 76.1075 211.343 76.1521C211.265 76.1966 211.176 76.2635 211.075 76.3527L210.858 75.8511C210.969 75.6839 211.181 75.4944 211.493 75.2826C211.817 75.0708 212.173 74.9649 212.563 74.9649C212.954 74.9649 213.238 75.0597 213.416 75.2492C213.594 75.4387 213.706 75.7173 213.751 76.0852L214.436 81.2685L214.653 83.0575L215.606 81.8035C216.13 81.0232 216.543 80.2764 216.844 79.563C217.145 78.8385 217.34 78.0749 217.429 77.2723C217.44 77.0828 217.423 76.8989 217.379 76.7206C217.334 76.5311 217.306 76.4252 217.295 76.4029C217.217 76.1688 217.178 75.9793 217.178 75.8344C217.178 75.5669 217.251 75.3551 217.396 75.199C217.552 75.043 217.758 74.9649 218.014 74.9649C218.371 74.9649 218.638 75.1154 218.817 75.4164C219.006 75.7062 219.101 76.0963 219.101 76.5868C219.112 77.3336 218.845 78.2198 218.298 79.2453C217.763 80.2708 217.078 81.3242 216.242 82.4054L214.653 84.5122L213.416 84.6125L212.881 81.5694L211.995 76.6202ZM226.968 82.8402C226.678 83.2749 226.21 83.6818 225.563 84.0607C224.928 84.4397 224.214 84.6292 223.423 84.6292C222.665 84.6292 222.035 84.462 221.534 84.1276C221.032 83.7821 220.664 83.3362 220.43 82.79C220.196 82.2327 220.079 81.6363 220.079 81.0009C220.079 79.9197 220.296 78.9165 220.731 77.9913C221.166 77.055 221.762 76.3137 222.52 75.7675C223.278 75.2213 224.114 74.9482 225.028 74.9482C225.831 74.9482 226.433 75.1377 226.834 75.5167C227.246 75.8957 227.453 76.3973 227.453 77.0215C227.453 77.8241 227.14 78.4985 226.516 79.0447C225.892 79.5797 225.151 79.981 224.292 80.2485C223.434 80.5161 222.659 80.6554 221.968 80.6665C221.924 81.458 222.052 82.1323 222.353 82.6897C222.665 83.247 223.155 83.5257 223.824 83.5257C224.326 83.5257 224.811 83.4087 225.279 83.1746C225.758 82.9293 226.193 82.6005 226.583 82.1881L226.968 82.8402ZM224.627 75.8511C224.125 75.8511 223.679 76.0573 223.289 76.4697C222.91 76.8822 222.609 77.4005 222.386 78.0247C222.163 78.6378 222.03 79.2453 221.985 79.8472C222.52 79.8249 223.077 79.7079 223.657 79.4961C224.248 79.2732 224.738 78.9611 225.128 78.5598C225.519 78.1473 225.714 77.6792 225.714 77.1553C225.714 76.7317 225.619 76.4084 225.429 76.1855C225.24 75.9626 224.972 75.8511 224.627 75.8511ZM231.592 77.3225C231.726 76.9546 231.938 76.5924 232.227 76.2357C232.528 75.8678 232.885 75.5669 233.298 75.3328C233.71 75.0875 234.145 74.9649 234.602 74.9649C234.869 74.9649 235.048 75.0039 235.137 75.082L234.752 77.0048C234.585 76.8822 234.312 76.8209 233.933 76.8209C233.476 76.8209 233.019 76.9658 232.562 77.2556C232.116 77.5343 231.776 77.93 231.542 78.4427L230.756 84.4453H229.034L230.087 76.4029L229.235 75.9849L229.368 75.3495L231.425 74.9649L231.776 75.1656L231.659 76.6704L231.592 77.3225ZM238.6 77.1051C239.057 76.4697 239.587 75.9514 240.189 75.5501C240.79 75.1488 241.409 74.9482 242.044 74.9482C242.68 74.9482 243.165 75.1377 243.499 75.5167C243.845 75.8957 244.017 76.5143 244.017 77.3726C244.017 77.7851 243.912 78.5654 243.7 79.7135L243.599 80.3154L243.516 80.8003C243.315 81.7701 243.209 82.5058 243.198 83.0074V83.1077C243.198 83.3975 243.271 83.5424 243.416 83.5424C243.638 83.5424 243.9 83.4087 244.201 83.1411L244.419 83.5926C244.285 83.7821 244.04 83.9994 243.683 84.2447C243.326 84.4899 242.92 84.6125 242.463 84.6125C241.716 84.6125 241.342 84.2614 241.342 83.5591C241.342 83.2136 241.448 82.489 241.66 81.3855L241.777 80.7669L241.844 80.3656C242.089 79.0614 242.212 78.1195 242.212 77.5398C242.201 77.0271 242.123 76.676 241.978 76.4865C241.833 76.297 241.582 76.2022 241.225 76.2022C240.802 76.2022 240.322 76.4196 239.787 76.8543C239.263 77.2779 238.812 77.8018 238.433 78.426L237.63 84.4453H235.908L236.978 76.3861L236.142 75.9681L236.276 75.3328L238.45 74.9482L238.801 75.1321L238.6 77.1051ZM253.031 82.8736C253.02 82.9182 253.014 82.9795 253.014 83.0575C253.014 83.2247 253.042 83.3473 253.098 83.4254C253.165 83.5034 253.248 83.5424 253.349 83.5424C253.527 83.5424 253.772 83.4031 254.084 83.1244L254.318 83.5591C254.196 83.7598 253.962 83.9883 253.616 84.2447C253.282 84.4899 252.903 84.6125 252.479 84.6125C252.134 84.6125 251.86 84.5289 251.66 84.3617C251.459 84.1834 251.364 83.9103 251.376 83.5424L251.442 83.0575C251.086 83.4923 250.668 83.8601 250.188 84.1611C249.72 84.462 249.213 84.6125 248.667 84.6125C247.764 84.6125 247.09 84.2948 246.644 83.6595C246.198 83.0129 245.975 82.1658 245.975 81.118C245.975 80.1594 246.187 79.2063 246.61 78.2588C247.034 77.3002 247.653 76.5088 248.466 75.8845C249.28 75.2603 250.233 74.9482 251.325 74.9482C251.582 74.9482 251.872 74.9816 252.195 75.0485C252.518 75.1043 252.814 75.1711 253.081 75.2492L254.101 74.9649L253.031 82.8736ZM252.212 76.1353C251.922 75.957 251.565 75.8678 251.142 75.8678C250.428 75.8678 249.821 76.1298 249.319 76.6537C248.817 77.1776 248.438 77.8352 248.182 78.6267C247.937 79.4069 247.814 80.1928 247.814 80.9842C247.814 81.7868 247.931 82.411 248.165 82.8569C248.411 83.2916 248.767 83.509 249.235 83.509C249.626 83.509 250.016 83.3641 250.406 83.0743C250.807 82.7733 251.147 82.4333 251.426 82.0543L252.212 76.1353ZM258.7 77.1051C259.157 76.4697 259.687 75.9514 260.289 75.5501C260.891 75.1488 261.509 74.9482 262.145 74.9482C262.78 74.9482 263.265 75.1377 263.599 75.5167C263.945 75.8957 264.118 76.5143 264.118 77.3726C264.118 77.7851 264.012 78.5654 263.8 79.7135L263.7 80.3154L263.616 80.8003C263.415 81.7701 263.31 82.5058 263.298 83.0074V83.1077C263.298 83.3975 263.371 83.5424 263.516 83.5424C263.739 83.5424 264.001 83.4087 264.302 83.1411L264.519 83.5926C264.385 83.7821 264.14 83.9994 263.783 84.2447C263.427 84.4899 263.02 84.6125 262.563 84.6125C261.816 84.6125 261.442 84.2614 261.442 83.5591C261.442 83.2136 261.548 82.489 261.76 81.3855L261.877 80.7669L261.944 80.3656C262.189 79.0614 262.312 78.1195 262.312 77.5398C262.301 77.0271 262.223 76.676 262.078 76.4865C261.933 76.297 261.682 76.2022 261.325 76.2022C260.902 76.2022 260.423 76.4196 259.887 76.8543C259.364 77.2779 258.912 77.8018 258.533 78.426L257.731 84.4453H256.008L257.078 76.3861L256.242 75.9681L256.376 75.3328L258.55 74.9482L258.901 75.1321L258.7 77.1051ZM272.061 76.9881C271.426 76.3527 270.924 76.035 270.556 76.035C270.043 76.035 269.581 76.2301 269.168 76.6202C268.756 77.0104 268.433 77.551 268.199 78.2421C267.965 78.9332 267.848 79.7246 267.848 80.6164C267.848 82.5113 268.438 83.4588 269.62 83.4588C270.088 83.4588 270.489 83.3752 270.824 83.208C271.158 83.0408 271.515 82.7844 271.894 82.4389L272.245 83.0743C271.966 83.4532 271.548 83.8044 270.991 84.1276C270.434 84.4509 269.781 84.6125 269.035 84.6125C268.087 84.6125 267.346 84.2837 266.811 83.626C266.276 82.9572 266.008 82.0264 266.008 80.8337C266.008 79.9197 266.198 79.0112 266.577 78.1083C266.967 77.1943 267.535 76.4419 268.282 75.8511C269.04 75.2492 269.932 74.9482 270.957 74.9482C271.281 74.9482 271.621 74.9816 271.977 75.0485C272.334 75.1154 272.63 75.2046 272.864 75.316L272.395 77.0717L272.061 76.9881ZM280.476 82.8402C280.186 83.2749 279.718 83.6818 279.071 84.0607C278.436 84.4397 277.722 84.6292 276.931 84.6292C276.173 84.6292 275.543 84.462 275.042 84.1276C274.54 83.7821 274.172 83.3362 273.938 82.79C273.704 82.2327 273.587 81.6363 273.587 81.0009C273.587 79.9197 273.804 78.9165 274.239 77.9913C274.674 77.055 275.27 76.3137 276.028 75.7675C276.786 75.2213 277.622 74.9482 278.536 74.9482C279.339 74.9482 279.941 75.1377 280.342 75.5167C280.754 75.8957 280.961 76.3973 280.961 77.0215C280.961 77.8241 280.649 78.4985 280.024 79.0447C279.4 79.5797 278.659 79.981 277.801 80.2485C276.942 80.5161 276.168 80.6554 275.476 80.6665C275.432 81.458 275.56 82.1323 275.861 82.6897C276.173 83.247 276.664 83.5257 277.332 83.5257C277.834 83.5257 278.319 83.4087 278.787 83.1746C279.266 82.9293 279.701 82.6005 280.091 82.1881L280.476 82.8402ZM278.135 75.8511C277.633 75.8511 277.187 76.0573 276.797 76.4697C276.418 76.8822 276.117 77.4005 275.894 78.0247C275.671 78.6378 275.538 79.2453 275.493 79.8472C276.028 79.8249 276.586 79.7079 277.165 79.4961C277.756 79.2732 278.246 78.9611 278.637 78.5598C279.027 78.1473 279.222 77.6792 279.222 77.1553C279.222 76.7317 279.127 76.4084 278.937 76.1855C278.748 75.9626 278.48 75.8511 278.135 75.8511Z" fill="black"/>
<path d="M13.6276 50.2295H16.3704C17.8852 50.2295 19.1132 52.1082 19.1132 54.4248V83.7917C19.1132 86.1083 17.8852 87.987 16.3704 87.987H13.6276C12.1128 87.987 10.8848 86.1083 10.8848 83.7917V54.4248C10.8848 52.1082 12.1128 50.2295 13.6276 50.2295Z" fill="#1269A9"/>
</svg>
